<?xml version="1.0" encoding="UTF-8"?><svg id="_레이어_2" xmlns="http://www.w3.org/2000/svg" viewBox="0 0 684.68 200"><defs><style>.cls-1{fill:#00d8cd;}.cls-2{fill:#fff;}.cls-3{fill:#1d344a;}</style></defs><g id="_레이어_1-2"><g><g><path class="cls-1" d="M35.21,0h22.6C65.23,0,71.26,6.03,71.26,13.45V57.59c0,7.42-6.03,13.45-13.45,13.45H13.45c-7.42,0-13.45-6.03-13.45-13.45v-22.39C0,15.78,15.78,0,35.21,0Z"/><path class="cls-1" d="M95.1,0h44.35C146.88,0,152.91,6.03,152.91,13.45V57.59c0,7.42-6.03,13.45-13.45,13.45h-22.6c-19.43,0-35.21-15.78-35.21-35.21V13.45C81.65,6.03,87.68,0,95.1,0Z" transform="translate(234.56 71.04) rotate(-180)"/><path class="cls-1" d="M13.45,81.42H57.81c7.42,0,13.45,6.03,13.45,13.45v44.14c0,7.42-6.03,13.45-13.45,13.45h-22.6C15.78,152.46,0,136.69,0,117.26v-22.39c0-7.42,6.03-13.45,13.45-13.45Z"/><path class="cls-1" d="M116.86,81.42h22.6c7.42,0,13.45,6.03,13.45,13.45v44.14c0,7.42-6.03,13.45-13.45,13.45h-44.35c-7.42,0-13.45-6.03-13.45-13.45v-22.39c0-19.43,15.78-35.21,35.21-35.21Z" transform="translate(234.56 233.88) rotate(180)"/><path class="cls-2" d="M48.32,30.34c-.1,0-.2-.02-.3-.02s-.2,0-.3,.02h-6.89v-7.16c0-1.77-1.44-3.2-3.21-3.2h-3.97c-1.77,0-3.21,1.43-3.21,3.2v7.16h-6.89c-.1,0-.2-.02-.3-.02s-.2,0-.3,.02c-1.63,.15-2.9,1.53-2.9,3.2v3.97c0,1.67,1.27,3.04,2.9,3.2,.1,0,.2,.02,.3,.02s.2,0,.3-.02h6.89v7.16c0,1.77,1.44,3.2,3.21,3.2h3.97c1.77,0,3.21-1.43,3.21-3.2v-7.16h6.89c.1,0,.2,.02,.3,.02s.2,0,.3-.02c1.63-.15,2.9-1.53,2.9-3.2v-3.97c0-1.67-1.27-3.04-2.9-3.2Z"/><path class="cls-2" d="M22.98,111.76c.06,.08,.13,.15,.2,.23s.15,.14,.23,.2l4.87,4.87-5.06,5.06c-1.25,1.25-1.25,3.28,0,4.54l2.81,2.81c1.25,1.25,3.29,1.26,4.54,0l5.06-5.06,4.87,4.87c.06,.08,.13,.15,.2,.23s.15,.14,.23,.2c1.26,1.04,3.13,.97,4.31-.21l2.81-2.81c1.18-1.18,1.25-3.05,.21-4.31-.06-.08-.13-.15-.2-.23s-.15-.14-.23-.2l-4.87-4.87,5.06-5.06c1.25-1.25,1.25-3.28,0-4.54l-2.81-2.81c-1.25-1.25-3.29-1.26-4.54,0l-5.06,5.06-4.87-4.87c-.06-.08-.13-.15-.2-.23s-.15-.14-.23-.2c-1.26-1.04-3.13-.97-4.31,.21l-2.81,2.81c-1.18,1.18-1.25,3.05-.21,4.31Z"/><path class="cls-2" d="M129.67,111.75h-24.78c-1.77,0-3.2,1.44-3.2,3.21v3.94c0,1.77,1.43,3.21,3.2,3.21h24.78c1.77,0,3.2-1.44,3.2-3.21v-3.94c0-1.77-1.43-3.21-3.2-3.21Z"/><path class="cls-2" d="M129.67,30.71h-24.78c-1.77,0-3.2,1.34-3.2,2.99v3.66c0,1.65,1.43,2.99,3.2,2.99h24.78c1.77,0,3.2-1.34,3.2-2.99v-3.66c0-1.65-1.43-2.99-3.2-2.99Z"/><circle class="cls-2" cx="117.28" cy="23.31" r="5.13"/><circle class="cls-2" cx="117.28" cy="47.73" r="5.13"/><path class="cls-3" d="M95.01,167.65l2.3,23.09c.49,4.96-3.4,9.26-8.39,9.26h-25.43c-4.98,0-8.88-4.3-8.38-9.26l2.3-23.1c.43-4.31,4.05-7.59,8.39-7.59h20.83c4.33,0,7.96,3.28,8.39,7.59Z"/></g><path class="cls-3" d="M260.22,40.35c31.17,0,50.07,13.54,60.14,27.71l-26.14,24.25c-7.24-10.39-18.26-16.37-32.12-16.37-24.25,0-41.25,17.63-41.25,44.08s17,44.4,41.25,44.4c13.86,0,24.88-6.3,32.12-16.37l26.14,24.25c-10.08,14.17-28.97,27.71-60.14,27.71-46.92,0-80.61-33.06-80.61-79.98s33.69-79.67,80.61-79.67Z"/><path class="cls-3" d="M346.5,196.22V47.79h39.99V196.22h-39.99Z"/><path class="cls-3" d="M491.46,40.35c45.34,0,76.2,34.01,76.2,83.76v8.82h-113.05c2.52,19.21,17.95,35.27,43.77,35.27,14.17,0,30.86-5.67,40.62-15.11l17.63,25.82c-15.43,14.17-39.05,21.1-62.66,21.1-46.29,0-81.24-31.17-81.24-79.98,0-44.08,32.43-79.67,78.72-79.67Zm-37.47,65.5h74.94c-.94-14.48-11.02-33.69-37.47-33.69-24.88,0-35.58,18.58-37.47,33.69Z"/><path class="cls-3" d="M608.17,158.43V82.74h-25.19V47.79h25.19V0h40.31V47.79h30.86v34.95h-30.86v64.98c0,9.45,5.04,16.69,13.86,16.69,5.98,0,11.65-2.2,13.86-4.41l8.5,30.23c-5.98,5.35-16.69,9.76-33.38,9.76-28.02,0-43.14-14.48-43.14-41.57Z"/><path class="cls-1" d="M367.21,0h19.27V12.88c0,11.44-9.28,20.72-20.72,20.72h-19.27v-12.88c0-11.43,9.28-20.72,20.72-20.72Z"/></g></g></svg>