<svg width="130" height="22" viewBox="0 0 130 22" fill="none" xmlns="http://www.w3.org/2000/svg">
<path d="M13.784 7.56H17.984C17.424 3.668 13.98 0.924 9.528 0.951999C4.292 0.924 0.288 4.704 0.288 11.144C0.288 17.388 4.068 21.28 9.64 21.28C14.596 21.28 18.18 18.116 18.152 12.936V10.416H9.92V13.552H14.176C14.148 16.044 12.44 17.612 9.64 17.64C6.476 17.612 4.46 15.26 4.488 11.088C4.46 6.916 6.56 4.564 9.584 4.592C11.768 4.564 13.252 5.712 13.784 7.56ZM21.0758 21H25.1078V12.544C25.1358 10.724 26.4798 9.464 28.2998 9.464C28.8878 9.464 29.6718 9.548 30.0358 9.688V6.048C29.6718 5.992 29.1678 5.936 28.7478 5.936C27.0678 5.936 25.6958 6.888 25.1638 8.736H24.9958V6.16H21.0758V21ZM38.2971 21.28C41.9371 21.28 44.3731 19.516 44.9611 16.8H41.0971C40.7051 17.64 39.7251 18.256 38.3531 18.256C36.2531 18.256 34.9371 16.856 34.9371 14.616H45.0731V13.496C45.0731 8.428 41.9931 5.964 38.1291 5.936C33.7611 5.964 30.9331 9.072 30.9051 13.664C30.9331 18.34 33.7051 21.28 38.2971 21.28ZM34.9371 12.096C34.9931 10.388 36.2811 8.988 38.1851 8.96C39.9771 8.988 41.2371 10.276 41.2651 12.096H34.9371ZM54.3753 21.28C58.0153 21.28 60.4513 19.516 61.0393 16.8H57.1753C56.7833 17.64 55.8033 18.256 54.4313 18.256C52.3313 18.256 51.0153 16.856 51.0153 14.616H61.1513V13.496C61.1513 8.428 58.0713 5.964 54.2073 5.936C49.8393 5.964 47.0113 9.072 46.9833 13.664C47.0113 18.34 49.7833 21.28 54.3753 21.28ZM51.0153 12.096C51.0713 10.388 52.3593 8.988 54.2632 8.96C56.0553 8.988 57.3153 10.276 57.3433 12.096H51.0153ZM67.7094 12.376C67.7374 10.444 68.8854 9.324 70.5654 9.296C72.2734 9.324 73.2534 10.416 73.2534 12.264V21H77.2854V11.536C77.3134 8.064 75.2694 5.964 72.1894 5.936C69.9774 5.964 68.3814 7.028 67.7094 8.736H67.5414V6.16H63.6774V21H67.7094V12.376ZM80.5238 21H93.8518V17.584H84.6118V12.768H93.1238V9.408H84.6118V4.592H93.7958V1.176H80.5238V21ZM96.9847 21H101.073V13.944H104.181L107.961 21H112.553L108.325 13.3C110.593 12.32 111.825 10.36 111.825 7.672C111.825 3.724 109.249 1.204 104.713 1.176H96.9847V21ZM101.073 10.64V4.592H103.985C106.421 4.564 107.597 5.656 107.569 7.672C107.597 9.632 106.421 10.64 103.985 10.64H101.073ZM114.676 21H118.764V14.56H122.348C126.884 14.56 129.516 11.816 129.516 7.896C129.516 3.976 126.94 1.204 122.404 1.176H114.676V21ZM118.764 11.256V4.592H121.676C124.112 4.564 125.288 5.908 125.26 7.896C125.288 9.856 124.112 11.228 121.676 11.256H118.764Z" fill="#3B3B3B"/>
</svg>
