<svg width="150" height="118" viewBox="0 0 150 118" fill="none" xmlns="http://www.w3.org/2000/svg">
<g filter="url(#filter0_d_341_1165)">
<path fill-rule="evenodd" clip-rule="evenodd" d="M26.25 91.25H15.4167C12.4267 91.25 10 88.8233 10 85.8333V15.4167C10 12.4267 12.4267 10 15.4167 10H85.8333C88.8233 10 91.25 12.4267 91.25 15.4167V26.25H116.53C122.58 26.25 125.196 29.37 127.016 32.2462C130.234 37.3379 135.336 45.4196 138.44 50.5437C139.458 52.2337 140 54.1729 140 56.15V80.4167C140 86.3154 135.975 91.25 129.167 91.25H123.75C123.75 100.22 116.47 107.5 107.5 107.5C98.53 107.5 91.25 100.22 91.25 91.25H58.75C58.75 100.22 51.47 107.5 42.5 107.5C33.53 107.5 26.25 100.22 26.25 91.25ZM42.5 84.75C46.0858 84.75 49 87.6642 49 91.25C49 94.8358 46.0858 97.75 42.5 97.75C38.9142 97.75 36 94.8358 36 91.25C36 87.6642 38.9142 84.75 42.5 84.75ZM107.5 84.75C111.086 84.75 114 87.6642 114 91.25C114 94.8358 111.086 97.75 107.5 97.75C103.914 97.75 101 94.8358 101 91.25C101 87.6642 103.914 84.75 107.5 84.75ZM91.25 69.5833H20.8333V80.4167H30.3937C33.3675 77.0908 37.69 75 42.5 75C47.31 75 51.6325 77.0908 54.6062 80.4167H95.3938C98.3675 77.0908 102.69 75 107.5 75C112.31 75 116.632 77.0908 119.606 80.4167H129.167V55.6354L119.899 39.77C118.929 38.1071 117.147 37.0833 115.224 37.0833H91.25V69.5833ZM80.4167 20.8333H20.8333V58.75H80.4167V20.8333ZM96.6667 42.5V58.75H123.75L116.02 45.23C115.056 43.54 113.263 42.5 111.319 42.5H96.6667Z" fill="white"/>
</g>
<defs>
<filter id="filter0_d_341_1165" x="-4" y="0" width="158" height="125.5" filterUnits="userSpaceOnUse" color-interpolation-filters="sRGB">
<feFlood flood-opacity="0" result="BackgroundImageFix"/>
<feColorMatrix in="SourceAlpha" type="matrix" values="0 0 0 0 0 0 0 0 0 0 0 0 0 0 0 0 0 0 127 0" result="hardAlpha"/>
<feOffset dy="4"/>
<feGaussianBlur stdDeviation="2"/>
<feComposite in2="hardAlpha" operator="out"/>
<feColorMatrix type="matrix" values="0 0 0 0 0 0 0 0 0 0 0 0 0 0 0 0 0 0 0.25 0"/>
<feBlend mode="normal" in2="BackgroundImageFix" result="effect1_dropShadow_341_1165"/>
<feBlend mode="normal" in="SourceGraphic" in2="effect1_dropShadow_341_1165" result="shape"/>
</filter>
</defs>
</svg>
