<svg width="116" height="121" viewBox="0 0 116 121" fill="none" xmlns="http://www.w3.org/2000/svg">
<g filter="url(#filter0_d_341_1163)">
<path d="M100.814 42.4368C101.247 40.2709 99.5907 38.25 97.3818 38.25H93.7663C92.1045 38.25 90.6718 39.4185 90.3377 41.0464L78.5469 98.5026C78.3083 99.6653 77.2849 100.5 76.0979 100.5H39.7306C38.5436 100.5 37.5203 99.6653 37.2817 98.5026L25.4908 41.0464C25.1568 39.4185 23.7241 38.25 22.0623 38.25H18.4515C16.2427 38.25 14.5861 40.2709 15.0195 42.4368L28.1938 108.27C28.5212 109.906 29.9576 111.083 31.6258 111.083H84.2075C85.8758 111.083 87.3121 109.906 87.6395 108.27L100.814 42.4368ZM78.4681 19.0833C75.9906 19.0833 73.7105 17.1409 72.3573 14.5582C71.0527 12.0679 68.7054 9.5 65.6529 9.5H50.1804C47.1279 9.5 44.781 12.0679 43.477 14.5586C42.1249 17.141 39.8457 19.0833 37.3652 19.0833H13C11.067 19.0833 9.5 20.6503 9.5 22.5833V26.1667C9.5 28.0997 11.067 29.6667 13 29.6667H102.833C104.766 29.6667 106.333 28.0997 106.333 26.1667V22.5833C106.333 20.6503 104.766 19.0833 102.833 19.0833H78.4681Z" fill="white" stroke="white"/>
</g>
<defs>
<filter id="filter0_d_341_1163" x="-4" y="0" width="123.834" height="128.583" filterUnits="userSpaceOnUse" color-interpolation-filters="sRGB">
<feFlood flood-opacity="0" result="BackgroundImageFix"/>
<feColorMatrix in="SourceAlpha" type="matrix" values="0 0 0 0 0 0 0 0 0 0 0 0 0 0 0 0 0 0 127 0" result="hardAlpha"/>
<feOffset dy="4"/>
<feGaussianBlur stdDeviation="2"/>
<feComposite in2="hardAlpha" operator="out"/>
<feColorMatrix type="matrix" values="0 0 0 0 0 0 0 0 0 0 0 0 0 0 0 0 0 0 0.25 0"/>
<feBlend mode="normal" in2="BackgroundImageFix" result="effect1_dropShadow_341_1163"/>
<feBlend mode="normal" in="SourceGraphic" in2="effect1_dropShadow_341_1163" result="shape"/>
</filter>
</defs>
</svg>
