<svg width="140" height="140" viewBox="0 0 140 140" fill="none" xmlns="http://www.w3.org/2000/svg">
<path fill-rule="evenodd" clip-rule="evenodd" d="M130 125C130 127.761 127.761 130 125 130H15C12.2386 130 10 127.761 10 125C10 122.239 12.2386 120 15 120C27.8702 98.7217 33.6177 65.204 34.7971 44.8671C34.9543 42.1563 37.1677 40 39.8831 40H65.1025C67.8236 40 70.0384 42.1717 70.1885 44.8886C71.3994 66.8027 77.7095 97.3081 88.598 117.502C89.4413 119.066 91.0923 120 92.8691 120H108.734C110.839 120 112.273 117.896 111.511 115.934C108.364 107.821 103.31 93.7465 100.977 73.3604C100.774 71.5893 99.2854 70.23 97.5028 70.23C95.7241 70.23 94.2378 71.5791 94.0336 73.346C92.7686 84.2887 90.8532 93.1315 88.85 100.28C87.04 95.98 84.1 86.36 83.04 80.045C83.8962 74.8126 84.4793 69.7354 84.7814 65.1134C84.9587 62.4014 87.1715 60.23 89.8893 60.23H105.14C107.846 60.23 110.053 62.3806 110.237 65.0806C111.429 82.6499 116.427 105.626 124.865 120H125C127.761 120 130 122.239 130 125ZM61.0156 55.8735C60.6991 52.8001 57.7474 50 54.6577 50H49.0478C46.4506 50 44.2908 51.994 44.0283 54.5779C41.5257 79.2075 36.2806 97.0518 28.5734 115.812C27.7559 117.802 29.2084 120 31.3595 120H70.9168C74.5477 120 76.9756 116.246 75.6041 112.884C65.3474 87.7431 62.0495 65.9132 61.0156 55.8735ZM52.99 90H63.45L43.015 115L48.685 100H40.685L58.085 75L52.99 90ZM103.185 35.425C104.375 32.815 106.98 31 110 31C113.02 31 115.625 32.815 116.815 35.425C117.585 35.025 118.455 34.8 119.375 34.8C122.48 34.8 125 37.355 125 40.5C125 43.645 122.48 46.2 119.375 46.2C118.455 46.2 117.585 45.975 116.815 45.575C115.625 48.185 113.02 50 110 50C106.98 50 104.375 48.185 103.185 45.575C102.415 45.975 101.545 46.2 100.625 46.2C97.52 46.2 95 43.645 95 40.5C95 37.355 97.52 34.8 100.625 34.8C101.545 34.8 102.415 35.025 103.185 35.425ZM55 35H50C50.99 24.09 58.925 15 67.5 15C68.73 15 69.89 15.295 70.915 15.82C72.495 12.385 75.97 10 80 10C84.03 10 87.505 12.385 89.085 15.82C90.11 15.295 91.27 15 92.5 15C96.64 15 100 18.36 100 22.5C100 26.64 96.64 30 92.5 30C91.27 30 90.11 29.705 89.085 29.18C87.505 32.615 84.03 35 80 35C68.275 35 61.39 20.245 55 35Z" fill="url(#paint0_linear_341_1156)"/>
<defs>
<linearGradient id="paint0_linear_341_1156" x1="70" y1="10" x2="70" y2="130" gradientUnits="userSpaceOnUse">
<stop stop-color="#49C0A4"/>
<stop offset="1" stop-color="#42C4F5"/>
</linearGradient>
</defs>
</svg>
