<svg width="169" height="138" viewBox="0 0 169 138" fill="none" xmlns="http://www.w3.org/2000/svg">
<g filter="url(#filter0_d_341_1161)">
<mask id="path-1-inside-1_341_1161" fill="white">
<path d="M112.202 71.0434C114.207 70.369 115.542 68.4875 115.542 66.372V59.2102C115.542 57.0962 114.209 55.2153 112.206 54.5394C106.848 52.7315 103.325 51.4665 101.387 46.7974C99.4505 42.124 101.056 38.701 103.557 33.6644C104.498 31.7695 104.113 29.4949 102.618 27.9982L97.5617 22.9374C96.0659 21.4402 93.7907 21.0529 91.8955 21.9948C86.8918 24.4816 83.4444 26.1056 78.7635 24.1662C74.0903 22.2235 72.8175 18.6778 71.0224 13.3401C70.348 11.3348 68.4661 10 66.3505 10H59.1908C57.0753 10 55.1937 11.3347 54.5197 13.3399C52.7329 18.6561 51.4534 22.2226 46.7811 24.1588C46.7792 24.1596 46.7771 24.16 46.7751 24.16C46.773 24.16 46.7709 24.1604 46.769 24.1612C42.0988 26.1014 38.6861 24.4922 33.6478 21.9891C31.7517 21.0471 29.4754 21.435 27.9795 22.9333L22.9257 27.9951C21.4328 29.4904 21.0468 31.7616 21.9858 33.6545C24.4797 38.6815 26.097 42.1136 24.1612 46.7912C22.2156 51.4674 18.6529 52.7475 13.3388 54.5353C11.3342 55.2097 10 57.091 10 59.2061V66.3697C10 68.4833 11.3323 70.3637 13.3352 71.0387C18.6425 72.8273 22.2201 74.1113 24.155 78.7816C26.1005 83.4813 24.4539 86.9646 21.9862 91.9169C21.0429 93.8099 21.4283 96.0835 22.9231 97.5797L27.9819 102.643C29.4767 104.14 31.7502 104.528 33.6447 103.587C38.6562 101.099 42.0981 99.4732 46.769 101.412C46.7709 101.412 46.773 101.413 46.7751 101.413C46.7771 101.413 46.7792 101.413 46.7811 101.414C51.4504 103.351 52.728 106.903 54.5196 112.232C55.194 114.237 57.076 115.573 59.192 115.573H66.3447C68.4601 115.573 70.3416 114.238 71.0161 112.233C72.8037 106.919 74.0884 103.358 78.7916 101.402C78.7935 101.401 78.7956 101.4 78.7976 101.4C78.7997 101.4 78.8018 101.4 78.8037 101.399C83.4452 99.4683 86.8409 101.078 91.8894 103.585C93.7845 104.527 96.0595 104.139 97.5551 102.642L102.616 97.5766C104.109 96.0819 104.496 93.811 103.556 91.9185C101.067 86.9029 99.4393 83.4623 101.374 78.7816C103.314 74.117 106.892 72.8293 112.202 71.0434ZM62.7708 80.3901C53.061 80.3901 45.1826 72.5089 45.1826 62.7895C45.1826 53.07 53.061 45.1888 62.7708 45.1888C72.4807 45.1888 80.359 53.07 80.359 62.7895C80.359 72.5089 72.4807 80.3901 62.7708 80.3901ZM155.839 107.607C157.708 106.876 159 105.165 159 103.159C159 101.155 157.712 99.4423 155.844 98.7154C154.196 98.0736 153.045 97.3319 152.338 95.6369C151.632 93.9354 151.924 92.5891 152.636 90.9696C153.443 89.1357 153.144 87.0149 151.727 85.598C150.308 84.1777 148.182 83.8823 146.343 84.6894C144.735 85.395 143.384 85.6848 141.691 84.9859C139.99 84.2833 139.245 83.1266 138.605 81.4772C137.88 79.6104 136.169 78.322 134.166 78.322C132.164 78.322 130.454 79.6105 129.728 81.4765C129.088 83.1203 128.341 84.2806 126.642 84.9859C124.945 85.6905 123.602 85.4016 121.99 84.6914C120.152 83.8816 118.026 84.1779 116.606 85.5983C115.19 87.015 114.891 89.1354 115.696 90.9694C116.407 92.5868 116.7 93.9372 115.995 95.6369C115.29 97.3347 114.132 98.0798 112.491 98.7179C110.623 99.4441 109.333 101.155 109.333 103.159C109.333 105.165 110.625 106.876 112.494 107.605C114.132 108.244 115.291 108.993 115.995 110.685C116.7 112.386 116.403 113.75 115.7 115.352C114.895 117.187 115.19 119.308 116.607 120.725C118.027 122.145 120.152 122.442 121.99 121.635C123.601 120.928 124.952 120.636 126.642 121.336C128.343 122.038 129.088 123.197 129.728 124.846C130.453 126.712 132.164 128 134.166 128C136.169 128 137.879 126.711 138.606 124.845C139.247 123.202 139.996 122.04 141.701 121.331C141.703 121.33 141.705 121.33 141.707 121.33C141.709 121.33 141.711 121.329 141.713 121.329C143.398 120.629 144.733 120.921 146.345 121.633C148.181 122.444 150.307 122.145 151.726 120.725C153.143 119.308 153.442 117.186 152.636 115.35C151.928 113.737 151.634 112.384 152.338 110.691C153.042 109 154.201 108.248 155.839 107.607ZM134.167 111.437C129.597 111.437 125.891 107.729 125.891 103.158C125.891 98.587 129.597 94.8793 134.167 94.8793C138.736 94.8793 142.442 98.587 142.442 103.158C142.442 107.729 138.736 111.437 134.167 111.437Z"/>
</mask>
<path d="M112.202 71.0434C114.207 70.369 115.542 68.4875 115.542 66.372V59.2102C115.542 57.0962 114.209 55.2153 112.206 54.5394C106.848 52.7315 103.325 51.4665 101.387 46.7974C99.4505 42.124 101.056 38.701 103.557 33.6644C104.498 31.7695 104.113 29.4949 102.618 27.9982L97.5617 22.9374C96.0659 21.4402 93.7907 21.0529 91.8955 21.9948C86.8918 24.4816 83.4444 26.1056 78.7635 24.1662C74.0903 22.2235 72.8175 18.6778 71.0224 13.3401C70.348 11.3348 68.4661 10 66.3505 10H59.1908C57.0753 10 55.1937 11.3347 54.5197 13.3399C52.7329 18.6561 51.4534 22.2226 46.7811 24.1588C46.7792 24.1596 46.7771 24.16 46.7751 24.16C46.773 24.16 46.7709 24.1604 46.769 24.1612C42.0988 26.1014 38.6861 24.4922 33.6478 21.9891C31.7517 21.0471 29.4754 21.435 27.9795 22.9333L22.9257 27.9951C21.4328 29.4904 21.0468 31.7616 21.9858 33.6545C24.4797 38.6815 26.097 42.1136 24.1612 46.7912C22.2156 51.4674 18.6529 52.7475 13.3388 54.5353C11.3342 55.2097 10 57.091 10 59.2061V66.3697C10 68.4833 11.3323 70.3637 13.3352 71.0387C18.6425 72.8273 22.2201 74.1113 24.155 78.7816C26.1005 83.4813 24.4539 86.9646 21.9862 91.9169C21.0429 93.8099 21.4283 96.0835 22.9231 97.5797L27.9819 102.643C29.4767 104.14 31.7502 104.528 33.6447 103.587C38.6562 101.099 42.0981 99.4732 46.769 101.412C46.7709 101.412 46.773 101.413 46.7751 101.413C46.7771 101.413 46.7792 101.413 46.7811 101.414C51.4504 103.351 52.728 106.903 54.5196 112.232C55.194 114.237 57.076 115.573 59.192 115.573H66.3447C68.4601 115.573 70.3416 114.238 71.0161 112.233C72.8037 106.919 74.0884 103.358 78.7916 101.402C78.7935 101.401 78.7956 101.4 78.7976 101.4C78.7997 101.4 78.8018 101.4 78.8037 101.399C83.4452 99.4683 86.8409 101.078 91.8894 103.585C93.7845 104.527 96.0595 104.139 97.5551 102.642L102.616 97.5766C104.109 96.0819 104.496 93.811 103.556 91.9185C101.067 86.9029 99.4393 83.4623 101.374 78.7816C103.314 74.117 106.892 72.8293 112.202 71.0434ZM62.7708 80.3901C53.061 80.3901 45.1826 72.5089 45.1826 62.7895C45.1826 53.07 53.061 45.1888 62.7708 45.1888C72.4807 45.1888 80.359 53.07 80.359 62.7895C80.359 72.5089 72.4807 80.3901 62.7708 80.3901ZM155.839 107.607C157.708 106.876 159 105.165 159 103.159C159 101.155 157.712 99.4423 155.844 98.7154C154.196 98.0736 153.045 97.3319 152.338 95.6369C151.632 93.9354 151.924 92.5891 152.636 90.9696C153.443 89.1357 153.144 87.0149 151.727 85.598C150.308 84.1777 148.182 83.8823 146.343 84.6894C144.735 85.395 143.384 85.6848 141.691 84.9859C139.99 84.2833 139.245 83.1266 138.605 81.4772C137.88 79.6104 136.169 78.322 134.166 78.322C132.164 78.322 130.454 79.6105 129.728 81.4765C129.088 83.1203 128.341 84.2806 126.642 84.9859C124.945 85.6905 123.602 85.4016 121.99 84.6914C120.152 83.8816 118.026 84.1779 116.606 85.5983C115.19 87.015 114.891 89.1354 115.696 90.9694C116.407 92.5868 116.7 93.9372 115.995 95.6369C115.29 97.3347 114.132 98.0798 112.491 98.7179C110.623 99.4441 109.333 101.155 109.333 103.159C109.333 105.165 110.625 106.876 112.494 107.605C114.132 108.244 115.291 108.993 115.995 110.685C116.7 112.386 116.403 113.75 115.7 115.352C114.895 117.187 115.19 119.308 116.607 120.725C118.027 122.145 120.152 122.442 121.99 121.635C123.601 120.928 124.952 120.636 126.642 121.336C128.343 122.038 129.088 123.197 129.728 124.846C130.453 126.712 132.164 128 134.166 128C136.169 128 137.879 126.711 138.606 124.845C139.247 123.202 139.996 122.04 141.701 121.331C141.703 121.33 141.705 121.33 141.707 121.33C141.709 121.33 141.711 121.329 141.713 121.329C143.398 120.629 144.733 120.921 146.345 121.633C148.181 122.444 150.307 122.145 151.726 120.725C153.143 119.308 153.442 117.186 152.636 115.35C151.928 113.737 151.634 112.384 152.338 110.691C153.042 109 154.201 108.248 155.839 107.607ZM134.167 111.437C129.597 111.437 125.891 107.729 125.891 103.158C125.891 98.587 129.597 94.8793 134.167 94.8793C138.736 94.8793 142.442 98.587 142.442 103.158C142.442 107.729 138.736 111.437 134.167 111.437Z" stroke="white" stroke-width="16" shape-rendering="crispEdges" mask="url(#path-1-inside-1_341_1161)"/>
</g>
<defs>
<filter id="filter0_d_341_1161" x="6" y="10" width="157" height="126" filterUnits="userSpaceOnUse" color-interpolation-filters="sRGB">
<feFlood flood-opacity="0" result="BackgroundImageFix"/>
<feColorMatrix in="SourceAlpha" type="matrix" values="0 0 0 0 0 0 0 0 0 0 0 0 0 0 0 0 0 0 127 0" result="hardAlpha"/>
<feOffset dy="4"/>
<feGaussianBlur stdDeviation="2"/>
<feComposite in2="hardAlpha" operator="out"/>
<feColorMatrix type="matrix" values="0 0 0 0 0 0 0 0 0 0 0 0 0 0 0 0 0 0 0.25 0"/>
<feBlend mode="normal" in2="BackgroundImageFix" result="effect1_dropShadow_341_1161"/>
<feBlend mode="normal" in="SourceGraphic" in2="effect1_dropShadow_341_1161" result="shape"/>
</filter>
</defs>
</svg>
