<svg width="120" height="112" viewBox="0 0 120 112" fill="none" xmlns="http://www.w3.org/2000/svg">
<mask id="path-1-outside-1_341_1154" maskUnits="userSpaceOnUse" x="2" y="3" width="117" height="108" fill="black">
<rect fill="white" x="2" y="3" width="117" height="108"/>
<path d="M66.4129 39.4428C68.4685 38.7454 69.3216 40.9799 67.4966 42.1551C47.82 54.8258 23.3212 76.774 11.4589 98.8224C10.7586 100.124 11.7219 101.667 13.1998 101.667H20.8983C21.7129 101.667 22.4394 101.172 22.7839 100.434C26.3707 92.7506 34.6708 83.8685 40.0289 78.3338C40.6125 77.731 41.5194 77.5693 42.2938 77.8922C76.7775 92.2673 110 65.0717 110 29.8125C110 24.4987 109.131 18.995 107.361 13.4162C106.885 11.9168 104.906 11.6304 103.758 12.7054C94.1519 21.6964 80.9142 14.5731 60.9542 16.7708C30.3753 20.1414 15.689 43.0677 23.3191 62.3672C23.8156 63.6229 25.4199 63.8991 26.42 62.9917C37.823 52.6455 54.3338 43.5408 66.4129 39.4428Z"/>
</mask>
<path d="M66.4129 39.4428C68.4685 38.7454 69.3216 40.9799 67.4966 42.1551C47.82 54.8258 23.3212 76.774 11.4589 98.8224C10.7586 100.124 11.7219 101.667 13.1998 101.667H20.8983C21.7129 101.667 22.4394 101.172 22.7839 100.434C26.3707 92.7506 34.6708 83.8685 40.0289 78.3338C40.6125 77.731 41.5194 77.5693 42.2938 77.8922C76.7775 92.2673 110 65.0717 110 29.8125C110 24.4987 109.131 18.995 107.361 13.4162C106.885 11.9168 104.906 11.6304 103.758 12.7054C94.1519 21.6964 80.9142 14.5731 60.9542 16.7708C30.3753 20.1414 15.689 43.0677 23.3191 62.3672C23.8156 63.6229 25.4199 63.8991 26.42 62.9917C37.823 52.6455 54.3338 43.5408 66.4129 39.4428Z" fill="#F8F8F8"/>
<path d="M66.4129 39.4428C68.4685 38.7454 69.3216 40.9799 67.4966 42.1551C47.82 54.8258 23.3212 76.774 11.4589 98.8224C10.7586 100.124 11.7219 101.667 13.1998 101.667H20.8983C21.7129 101.667 22.4394 101.172 22.7839 100.434C26.3707 92.7506 34.6708 83.8685 40.0289 78.3338C40.6125 77.731 41.5194 77.5693 42.2938 77.8922C76.7775 92.2673 110 65.0717 110 29.8125C110 24.4987 109.131 18.995 107.361 13.4162C106.885 11.9168 104.906 11.6304 103.758 12.7054C94.1519 21.6964 80.9142 14.5731 60.9542 16.7708C30.3753 20.1414 15.689 43.0677 23.3191 62.3672C23.8156 63.6229 25.4199 63.8991 26.42 62.9917C37.823 52.6455 54.3338 43.5408 66.4129 39.4428Z" stroke="url(#paint0_linear_341_1154)" stroke-width="18" mask="url(#path-1-outside-1_341_1154)"/>
<defs>
<linearGradient id="paint0_linear_341_1154" x1="110" y1="-6" x2="35.5" y2="115.5" gradientUnits="userSpaceOnUse">
<stop stop-color="#44B58C"/>
<stop offset="1" stop-color="#4AD3DC"/>
</linearGradient>
</defs>
</svg>
