<svg width="125" height="119" viewBox="0 0 125 119" fill="none" xmlns="http://www.w3.org/2000/svg">
<g filter="url(#filter0_d_341_1160)">
<mask id="path-1-outside-1_341_1160" maskUnits="userSpaceOnUse" x="4" y="3" width="117" height="108" fill="black">
<rect fill="white" x="4" y="3" width="117" height="108"/>
<path d="M68.4129 39.4428C70.4685 38.7454 71.3216 40.9799 69.4966 42.1551C49.82 54.8258 25.3212 76.774 13.4589 98.8224C12.7586 100.124 13.7219 101.667 15.1998 101.667H22.8983C23.7129 101.667 24.4394 101.172 24.7839 100.434C28.3707 92.7506 36.6708 83.8685 42.0289 78.3338C42.6125 77.731 43.5194 77.5693 44.2938 77.8922C78.7775 92.2673 112 65.0717 112 29.8125C112 24.4987 111.131 18.995 109.361 13.4162C108.885 11.9168 106.906 11.6304 105.758 12.7054C96.1519 21.6964 82.9142 14.5731 62.9542 16.7708C32.3753 20.1414 17.689 43.0677 25.3191 62.3672C25.8156 63.6229 27.4199 63.8991 28.42 62.9917C39.823 52.6455 56.3338 43.5408 68.4129 39.4428Z"/>
</mask>
<path d="M68.4129 39.4428C70.4685 38.7454 71.3216 40.9799 69.4966 42.1551C49.82 54.8258 25.3212 76.774 13.4589 98.8224C12.7586 100.124 13.7219 101.667 15.1998 101.667H22.8983C23.7129 101.667 24.4394 101.172 24.7839 100.434C28.3707 92.7506 36.6708 83.8685 42.0289 78.3338C42.6125 77.731 43.5194 77.5693 44.2938 77.8922C78.7775 92.2673 112 65.0717 112 29.8125C112 24.4987 111.131 18.995 109.361 13.4162C108.885 11.9168 106.906 11.6304 105.758 12.7054C96.1519 21.6964 82.9142 14.5731 62.9542 16.7708C32.3753 20.1414 17.689 43.0677 25.3191 62.3672C25.8156 63.6229 27.4199 63.8991 28.42 62.9917C39.823 52.6455 56.3338 43.5408 68.4129 39.4428Z" stroke="white" stroke-width="18" mask="url(#path-1-outside-1_341_1160)"/>
</g>
<defs>
<filter id="filter0_d_341_1160" x="-2" y="0" width="128" height="119.667" filterUnits="userSpaceOnUse" color-interpolation-filters="sRGB">
<feFlood flood-opacity="0" result="BackgroundImageFix"/>
<feColorMatrix in="SourceAlpha" type="matrix" values="0 0 0 0 0 0 0 0 0 0 0 0 0 0 0 0 0 0 127 0" result="hardAlpha"/>
<feOffset dy="4"/>
<feGaussianBlur stdDeviation="2"/>
<feComposite in2="hardAlpha" operator="out"/>
<feColorMatrix type="matrix" values="0 0 0 0 0 0 0 0 0 0 0 0 0 0 0 0 0 0 0.25 0"/>
<feBlend mode="normal" in2="BackgroundImageFix" result="effect1_dropShadow_341_1160"/>
<feBlend mode="normal" in="SourceGraphic" in2="effect1_dropShadow_341_1160" result="shape"/>
</filter>
</defs>
</svg>
