<svg width="73" height="73" viewBox="0 0 73 73" fill="none" xmlns="http://www.w3.org/2000/svg">
<mask id="mask0_41_2302" style="mask-type:alpha" maskUnits="userSpaceOnUse" x="0" y="0" width="73" height="73">
<rect width="73" height="73" fill="#D9D9D9"/>
</mask>
<g mask="url(#mask0_41_2302)">
<path d="M18.2503 60.8333C15.7156 60.8333 13.5611 59.9462 11.7868 58.1719C10.0125 56.3976 9.12533 54.243 9.12533 51.7083H3.04199V18.25C3.04199 16.5771 3.63816 15.1455 4.83049 13.9552C6.0208 12.7628 7.45241 12.1667 9.12533 12.1667H51.7087V24.3333H60.8337L69.9587 36.5V51.7083H63.8753C63.8753 54.243 62.9882 56.3976 61.2139 58.1719C59.4396 59.9462 57.2851 60.8333 54.7503 60.8333C52.2156 60.8333 50.0611 59.9462 48.2868 58.1719C46.5125 56.3976 45.6253 54.243 45.6253 51.7083H27.3753C27.3753 54.243 26.4882 56.3976 24.7139 58.1719C22.9396 59.9462 20.785 60.8333 18.2503 60.8333ZM18.2503 54.75C19.1121 54.75 19.835 54.458 20.419 53.874C21.001 53.292 21.292 52.5701 21.292 51.7083C21.292 50.8465 21.001 50.1246 20.419 49.5427C19.835 48.9587 19.1121 48.6667 18.2503 48.6667C17.3885 48.6667 16.6656 48.9587 16.0816 49.5427C15.4996 50.1246 15.2087 50.8465 15.2087 51.7083C15.2087 52.5701 15.4996 53.292 16.0816 53.874C16.6656 54.458 17.3885 54.75 18.2503 54.75ZM9.12533 45.625H11.5587C12.4205 44.7125 13.409 43.9774 14.5243 43.4198C15.6396 42.8621 16.8816 42.5833 18.2503 42.5833C19.6191 42.5833 20.8611 42.8621 21.9764 43.4198C23.0916 43.9774 24.0802 44.7125 24.942 45.625H45.6253V18.25H9.12533V45.625ZM54.7503 54.75C55.6121 54.75 56.334 54.458 56.916 53.874C57.5 53.292 57.792 52.5701 57.792 51.7083C57.792 50.8465 57.5 50.1246 56.916 49.5427C56.334 48.9587 55.6121 48.6667 54.7503 48.6667C53.8885 48.6667 53.1666 48.9587 52.5847 49.5427C52.0007 50.1246 51.7087 50.8465 51.7087 51.7083C51.7087 52.5701 52.0007 53.292 52.5847 53.874C53.1666 54.458 53.8885 54.75 54.7503 54.75ZM51.7087 39.5417H64.6357L57.792 30.4167H51.7087V39.5417Z" fill="#1D344A"/>
</g>
</svg>
