<svg width="73" height="73" viewBox="0 0 73 73" fill="none" xmlns="http://www.w3.org/2000/svg">
<mask id="mask0_41_1267" style="mask-type:alpha" maskUnits="userSpaceOnUse" x="0" y="0" width="73" height="73">
<rect width="73" height="73" fill="#D9D9D9"/>
</mask>
<g mask="url(#mask0_41_1267)">
<path d="M17.7939 52.0125C20.3793 50.0354 23.2689 48.4761 26.4627 47.3344C29.6564 46.1948 33.0022 45.625 36.5002 45.625C39.9981 45.625 43.3439 46.1948 46.5377 47.3344C49.7314 48.4761 52.621 50.0354 55.2064 52.0125C56.9807 49.934 58.3627 47.5767 59.3522 44.9406C60.3397 42.3045 60.8335 39.491 60.8335 36.5C60.8335 29.7577 58.464 24.016 53.7251 19.2751C48.9842 14.5361 43.2425 12.1667 36.5002 12.1667C29.7578 12.1667 24.0172 14.5361 19.2782 19.2751C14.5373 24.016 12.1668 29.7577 12.1668 36.5C12.1668 39.491 12.6616 42.3045 13.6512 44.9406C14.6387 47.5767 16.0196 49.934 17.7939 52.0125ZM36.5002 39.5417C33.5092 39.5417 30.9866 38.5156 28.9325 36.4635C26.8804 34.4094 25.8543 31.8868 25.8543 28.8958C25.8543 25.9049 26.8804 23.3823 28.9325 21.3282C30.9866 19.2761 33.5092 18.25 36.5002 18.25C39.4911 18.25 42.0137 19.2761 44.0678 21.3282C46.1199 23.3823 47.146 25.9049 47.146 28.8958C47.146 31.8868 46.1199 34.4094 44.0678 36.4635C42.0137 38.5156 39.4911 39.5417 36.5002 39.5417ZM36.5002 66.9167C32.2925 66.9167 28.3384 66.1177 24.6377 64.5198C20.937 62.924 17.7179 60.7573 14.9804 58.0198C12.2429 55.2823 10.0762 52.0632 8.48033 48.3625C6.88244 44.6618 6.0835 40.7076 6.0835 36.5C6.0835 32.2924 6.88244 28.3382 8.48033 24.6375C10.0762 20.9368 12.2429 17.7177 14.9804 14.9802C17.7179 12.2427 20.937 10.075 24.6377 8.47713C28.3384 6.88127 32.2925 6.08334 36.5002 6.08334C40.7078 6.08334 44.662 6.88127 48.3627 8.47713C52.0634 10.075 55.2825 12.2427 58.02 14.9802C60.7575 17.7177 62.9241 20.9368 64.52 24.6375C66.1179 28.3382 66.9168 32.2924 66.9168 36.5C66.9168 40.7076 66.1179 44.6618 64.52 48.3625C62.9241 52.0632 60.7575 55.2823 58.02 58.0198C55.2825 60.7573 52.0634 62.924 48.3627 64.5198C44.662 66.1177 40.7078 66.9167 36.5002 66.9167Z" fill="#1D344A"/>
</g>
</svg>
