<svg width="75" height="75" viewBox="0 0 75 75" fill="none" xmlns="http://www.w3.org/2000/svg">
<mask id="mask0_41_2308" style="mask-type:alpha" maskUnits="userSpaceOnUse" x="0" y="0" width="75" height="75">
<rect width="75" height="75" fill="#D9D9D9"/>
</mask>
<g mask="url(#mask0_41_2308)">
<path d="M21.875 65.625C20.1562 65.625 18.6854 65.0135 17.4625 63.7906C16.2375 62.5656 15.625 61.0938 15.625 59.375V18.75H12.5V12.5H28.125V9.375H46.875V12.5H62.5V18.75H59.375V59.375C59.375 61.0938 58.7635 62.5656 57.5406 63.7906C56.3156 65.0135 54.8438 65.625 53.125 65.625H21.875ZM53.125 18.75H21.875V59.375H53.125V18.75ZM28.125 53.125H34.375V25H28.125V53.125ZM40.625 53.125H46.875V25H40.625V53.125Z" fill="#1D344A"/>
</g>
</svg>
