<svg width="76" height="76" viewBox="0 0 76 76" fill="none" xmlns="http://www.w3.org/2000/svg">
<mask id="mask0_41_2290" style="mask-type:alpha" maskUnits="userSpaceOnUse" x="0" y="0" width="76" height="76">
<rect width="75.0103" height="75.0103" fill="#D9D9D9"/>
</mask>
<g mask="url(#mask0_41_2290)">
<path d="M37.5054 62.5086C34.5883 62.5086 31.8411 62.0523 29.2636 61.1397C26.6841 60.2291 24.3265 58.9404 22.1908 57.2735L17.8152 61.571C17.2422 62.144 16.5129 62.4305 15.6274 62.4305C14.7418 62.4305 14.0126 62.144 13.4396 61.571C12.8666 60.998 12.5801 60.2687 12.5801 59.3832C12.5801 58.4976 12.8666 57.7684 13.4396 57.1954L17.7371 52.8979C16.0702 50.7622 14.7814 48.3921 13.8709 45.7875C12.9583 43.183 12.502 40.4222 12.502 37.5052C12.502 30.525 14.9242 24.6128 19.7686 19.7683C24.613 14.9239 30.5253 12.5017 37.5054 12.5017H62.5088V37.5052C62.5088 44.4853 60.0866 50.3976 55.2422 55.242C50.3978 60.0864 44.4855 62.5086 37.5054 62.5086ZM37.5054 56.2577C42.7145 56.2577 47.1421 54.4346 50.7885 50.7882C54.4348 47.1419 56.258 42.7142 56.258 37.5052V18.7526H37.5054C32.2963 18.7526 27.8687 20.5757 24.2223 24.2221C20.576 27.8684 18.7528 32.2961 18.7528 37.5052C18.7528 39.5367 19.0654 41.4776 19.6904 43.3278C20.3155 45.176 21.175 46.8554 22.2689 48.366L38.443 32.1919C39.016 31.6189 39.7453 31.3324 40.6308 31.3324C41.5164 31.3324 42.2456 31.6189 42.8186 32.1919C43.4437 32.817 43.7563 33.5588 43.7563 34.4172C43.7563 35.2778 43.4437 36.0206 42.8186 36.6457L26.6445 52.8198C28.1552 53.9137 29.8346 54.7596 31.6827 55.3576C33.533 55.9577 35.4739 56.2577 37.5054 56.2577Z" fill="#1D344A"/>
</g>
</svg>
