<svg width="70" height="70" viewBox="0 0 70 70" fill="none" xmlns="http://www.w3.org/2000/svg">
<mask id="mask0_41_1222" style="mask-type:alpha" maskUnits="userSpaceOnUse" x="0" y="0" width="70" height="70">
<rect width="69.2403" height="69.2403" fill="#D9D9D9"/>
</mask>
<g mask="url(#mask0_41_1222)">
<path d="M26.6871 63.4703L25.5331 54.2382C24.908 53.9978 24.3194 53.7093 23.7674 53.3727C23.2135 53.0362 22.6721 52.6755 22.1432 52.2909L13.5603 55.8971L5.62646 42.1933L13.0554 36.5675C13.0073 36.231 12.9832 35.9059 12.9832 35.5924V33.645C12.9832 33.3334 13.0073 33.0094 13.0554 32.6728L5.62646 27.047L13.5603 13.3432L22.1432 16.9495C22.6721 16.5648 23.225 16.2042 23.802 15.8676C24.3791 15.531 24.9561 15.2425 25.5331 15.0021L26.6871 5.77003H42.5546L43.7086 15.0021C44.3337 15.2425 44.9232 15.531 45.4771 15.8676C46.0291 16.2042 46.5696 16.5648 47.0985 16.9495L55.6814 13.3432L63.6152 27.047L56.1863 32.6728C56.2344 33.0094 56.2584 33.3334 56.2584 33.645V35.5924C56.2584 35.9059 56.2104 36.231 56.1142 36.5675L63.5431 42.1933L55.6093 55.8971L47.0985 52.2909C46.5696 52.6755 46.0166 53.0362 45.4396 53.3727C44.8626 53.7093 44.2856 53.9978 43.7086 54.2382L42.5546 63.4703H26.6871ZM34.7651 44.7177C37.5539 44.7177 39.9341 43.732 41.9055 41.7606C43.8769 39.7891 44.8626 37.409 44.8626 34.6202C44.8626 31.8313 43.8769 29.4512 41.9055 27.4797C39.9341 25.5083 37.5539 24.5226 34.7651 24.5226C31.9282 24.5226 29.5355 25.5083 27.5872 27.4797C25.6408 29.4512 24.6676 31.8313 24.6676 34.6202C24.6676 37.409 25.6408 39.7891 27.5872 41.7606C29.5355 43.732 31.9282 44.7177 34.7651 44.7177ZM34.7651 38.9477C33.563 38.9477 32.5417 38.5265 31.7012 37.684C30.8588 36.8435 30.4376 35.8222 30.4376 34.6202C30.4376 33.4181 30.8588 32.3968 31.7012 31.5563C32.5417 30.7138 33.563 30.2926 34.7651 30.2926C35.9672 30.2926 36.9894 30.7138 37.8319 31.5563C38.6724 32.3968 39.0926 33.4181 39.0926 34.6202C39.0926 35.8222 38.6724 36.8435 37.8319 37.684C36.9894 38.5265 35.9672 38.9477 34.7651 38.9477ZM31.7358 57.7003H37.4337L38.4435 50.055C39.9341 49.6703 41.317 49.1048 42.5921 48.3586C43.8654 47.6143 45.0309 46.7132 46.0888 45.6553L53.2292 48.6125L56.0421 43.7079L49.8393 39.0198C50.0797 38.3466 50.248 37.6369 50.3442 36.8907C50.4403 36.1463 50.4884 35.3895 50.4884 34.6202C50.4884 33.8508 50.4403 33.093 50.3442 32.3468C50.248 31.6024 50.0797 30.8937 49.8393 30.2205L56.0421 25.5324L53.2292 20.6278L46.0888 23.6571C45.0309 22.5512 43.8654 21.6251 42.5921 20.8788C41.317 20.1345 39.9341 19.57 38.4435 19.1853L37.5059 11.5401H31.808L30.7982 19.1853C29.3076 19.57 27.9257 20.1345 26.6524 20.8788C25.3773 21.6251 24.2108 22.5271 23.1529 23.585L16.0125 20.6278L13.1996 25.5324L19.4024 30.1484C19.162 30.8696 18.9937 31.5909 18.8975 32.3121C18.8014 33.0334 18.7533 33.8027 18.7533 34.6202C18.7533 35.3895 18.8014 36.1348 18.8975 36.856C18.9937 37.5773 19.162 38.2985 19.4024 39.0198L13.1996 43.7079L16.0125 48.6125L23.1529 45.5832C24.2108 46.6891 25.3773 47.6143 26.6524 48.3586C27.9257 49.1048 29.3076 49.6703 30.7982 50.055L31.7358 57.7003Z" fill="#1D344A"/>
</g>
</svg>
