<svg width="333" height="98" viewBox="0 0 333 98" fill="none" xmlns="http://www.w3.org/2000/svg">
<path d="M17.1242 0H28.1156C31.7242 0 34.6569 2.95455 34.6569 6.59017V28.2177C34.6569 31.8533 31.7242 34.8079 28.1156 34.8079H6.54133C2.93266 34.8079 0 31.8533 0 28.2177V17.2471C0 7.73181 7.67451 0 17.1242 0Z" fill="#00D8CD"/>
<path d="M67.8256 34.8079H46.2562C42.6427 34.8079 39.71 31.8533 39.71 28.2177V6.59018C39.71 2.95456 42.6427 7.62939e-06 46.2514 7.62939e-06H57.2428C66.6924 7.62939e-06 74.3669 7.73182 74.3669 17.252V28.2177C74.3669 31.8533 71.4343 34.8079 67.8256 34.8079Z" fill="#00D8CD"/>
<path d="M6.54133 39.8938H28.1156C31.7242 39.8938 34.6569 42.8484 34.6569 46.484V68.1115C34.6569 71.7471 31.7242 74.7017 28.1156 74.7017H17.1242C7.67451 74.7017 0 66.9747 0 57.4545V46.484C0 42.8484 2.93266 39.8938 6.54133 39.8938Z" fill="#00D8CD"/>
<path d="M57.2427 74.7016H46.2514C42.6427 74.7016 39.71 71.7471 39.71 68.1115V46.484C39.71 42.8483 42.6427 39.8938 46.2514 39.8938H67.8207C71.4294 39.8938 74.3621 42.8483 74.3621 46.484V57.4545C74.3621 66.9747 66.6875 74.7065 57.2379 74.7065L57.2427 74.7016Z" fill="#00D8CD"/>
<path d="M23.5002 14.8659C23.4515 14.8659 23.4029 14.8561 23.3543 14.8561C23.3056 14.8561 23.257 14.8561 23.2084 14.8659H19.8575V11.3577C19.8575 10.4905 19.1571 9.78979 18.2963 9.78979H16.3655C15.5047 9.78979 14.8043 10.4905 14.8043 11.3577V14.8659H11.4534C11.4048 14.8659 11.3562 14.8561 11.3075 14.8561C11.2589 14.8561 11.2103 14.8561 11.1616 14.8659C10.3689 14.9394 9.75122 15.6156 9.75122 16.4339V18.3791C9.75122 19.1973 10.3689 19.8686 11.1616 19.947C11.2103 19.947 11.2589 19.9568 11.3075 19.9568C11.3562 19.9568 11.4048 19.9568 11.4534 19.947H14.8043V23.4552C14.8043 24.3225 15.5047 25.0231 16.3655 25.0231H18.2963C19.1571 25.0231 19.8575 24.3225 19.8575 23.4552V19.947H23.2084C23.257 19.947 23.3056 19.9568 23.3543 19.9568C23.4029 19.9568 23.4515 19.9568 23.5002 19.947C24.2929 19.8735 24.9106 19.1973 24.9106 18.3791V16.4339C24.9106 15.6156 24.2929 14.9443 23.5002 14.8659Z" fill="white"/>
<path d="M11.1762 54.7597C11.2054 54.7989 11.2395 54.8332 11.2735 54.8724C11.3075 54.9115 11.3464 54.941 11.3854 54.9703L13.7539 57.3565L11.2929 59.8358C10.685 60.4483 10.685 61.4429 11.2929 62.0603L12.6596 63.4371C13.2675 64.0496 14.2596 64.0545 14.8676 63.4371L17.3285 60.9579L19.697 63.344C19.7262 63.3832 19.7602 63.4175 19.7942 63.4567C19.8283 63.4959 19.8672 63.5253 19.9061 63.5547C20.5189 64.0643 21.4284 64.03 22.0023 63.4518L23.3689 62.075C23.9428 61.4968 23.9768 60.5806 23.471 59.9632C23.4418 59.924 23.4078 59.8897 23.3737 59.8505C23.3397 59.8113 23.3008 59.7819 23.2619 59.7525L20.8934 57.3663L23.3543 54.8871C23.9622 54.2746 23.9622 53.2799 23.3543 52.6626L21.9877 51.2857C21.3797 50.6733 20.3876 50.6684 19.7797 51.2857L17.3188 53.765L14.9503 51.3788C14.9211 51.3396 14.887 51.3053 14.853 51.2661C14.8189 51.2269 14.78 51.1975 14.7411 51.1681C14.1283 50.6586 13.2189 50.6929 12.645 51.271L11.2784 52.6479C10.7045 53.226 10.6704 54.1423 11.1762 54.7597Z" fill="white"/>
<path d="M63.0642 54.7549H51.0126C50.1518 54.7549 49.4563 55.4604 49.4563 56.3277V58.2582C49.4563 59.1255 50.1518 59.831 51.0126 59.831H63.0642C63.925 59.831 64.6205 59.1255 64.6205 58.2582V56.3277C64.6205 55.4604 63.925 54.7549 63.0642 54.7549Z" fill="white"/>
<path d="M63.0642 15.0471H51.0126C50.1518 15.0471 49.4563 15.7037 49.4563 16.5121V18.3055C49.4563 19.1139 50.1518 19.7705 51.0126 19.7705H63.0642C63.925 19.7705 64.6205 19.1139 64.6205 18.3055V16.5121C64.6205 15.7037 63.925 15.0471 63.0642 15.0471Z" fill="white"/>
<path d="M57.0384 13.9349C58.4163 13.9349 59.5334 12.8095 59.5334 11.4213C59.5334 10.0331 58.4163 8.90771 57.0384 8.90771C55.6605 8.90771 54.5435 10.0331 54.5435 11.4213C54.5435 12.8095 55.6605 13.9349 57.0384 13.9349Z" fill="white"/>
<path d="M57.0384 25.9002C58.4163 25.9002 59.5334 24.7748 59.5334 23.3866C59.5334 21.9984 58.4163 20.873 57.0384 20.873C55.6605 20.873 54.5435 21.9984 54.5435 23.3866C54.5435 24.7748 55.6605 25.9002 57.0384 25.9002Z" fill="white"/>
<path d="M46.2077 82.1445L47.3263 93.458C47.5646 95.8883 45.6727 97.9952 43.2458 97.9952H30.8781C28.4561 97.9952 26.5594 95.8883 26.8025 93.458L27.9211 82.1396C28.1302 80.0278 29.8908 78.4207 32.0015 78.4207H42.1321C44.238 78.4207 46.0034 80.0278 46.2125 82.1396L46.2077 82.1445Z" fill="#1D344A"/>
<path d="M126.557 19.7705C141.716 19.7705 150.908 26.4048 155.805 33.3477L143.092 45.2296C139.571 40.1388 134.212 37.2087 127.471 37.2087C115.677 37.2087 107.409 45.847 107.409 58.8069C107.409 71.7667 115.677 80.5618 127.471 80.5618C134.212 80.5618 139.571 77.4749 143.092 72.5409L155.805 84.4228C150.903 91.3657 141.716 98 126.557 98C103.737 98 87.3523 81.8014 87.3523 58.8117C87.3523 35.8221 103.737 19.7754 126.557 19.7754V19.7705Z" fill="#1D344A"/>
<path d="M168.518 96.1431V23.416H187.967V96.1431H168.518Z" fill="#1D344A"/>
<path d="M239.019 19.7705C261.07 19.7705 276.078 36.4346 276.078 60.8109V65.1324H221.097C222.323 74.5449 229.827 82.4139 242.384 82.4139C249.276 82.4139 257.393 79.6357 262.14 75.0103L270.714 87.6615C263.21 94.6045 251.722 98 240.24 98C217.727 98 200.729 82.7275 200.729 58.8117C200.729 37.2136 216.501 19.7754 239.014 19.7754L239.019 19.7705ZM220.796 51.8639H257.242C256.785 44.7691 251.883 35.3566 239.019 35.3566C226.919 35.3566 221.715 44.4604 220.796 51.8639Z" fill="#1D344A"/>
<path d="M295.78 77.6268V40.5406H283.529V23.4159H295.78V0H315.385V23.4159H330.393V40.5406H315.385V72.3792C315.385 77.0094 317.836 80.5569 322.125 80.5569C325.034 80.5569 327.791 79.4789 328.866 78.3961L333 93.208C330.092 95.8294 324.883 97.9902 316.766 97.9902C303.138 97.9902 295.785 90.8953 295.785 77.6219L295.78 77.6268Z" fill="#1D344A"/>
<path d="M178.59 0H187.962V6.31088C187.962 11.9162 183.449 16.4632 177.885 16.4632H168.513V10.1523C168.513 4.55187 173.027 0 178.59 0Z" fill="#00D8CD"/>
</svg>
