<svg width="177" height="79" viewBox="0 0 177 79" fill="none" xmlns="http://www.w3.org/2000/svg">
<path d="M28.1758 28.218V60.5291C28.1758 64.4951 31.391 67.7143 35.3522 67.7143H132.316L141.297 79H34.2631C24.6772 79 16.904 71.2173 16.904 61.6196V28.218H0L22.5437 0.00743075L45.0873 28.218H28.1833H28.1758ZM148.824 50.7895V18.8219C148.824 14.6617 145.452 11.2857 141.297 11.2857H45.4977L36.516 0H142.737C152.323 0 160.096 7.78271 160.096 17.3804V50.782H177L154.456 78.9925L131.913 50.782H148.817L148.824 50.7895Z" fill="url(#paint0_linear_23_666)"/>
<defs>
<linearGradient id="paint0_linear_23_666" x1="-0.00745986" y1="39.5037" x2="177" y2="39.5037" gradientUnits="userSpaceOnUse">
<stop stop-color="#41D395"/>
<stop offset="1" stop-color="#1ACBC3"/>
</linearGradient>
</defs>
</svg>
