<svg width="40" height="40" viewBox="0 0 40 40" fill="none" xmlns="http://www.w3.org/2000/svg">
<g filter="url(#filter0_d_23_146)">
<path d="M23.2578 21.1176L25.4565 17.7648L25.0767 17.4288L22.0161 20.0146C21.4536 19.8977 20.8473 20.0731 20.4383 20.5333C19.8247 21.2199 19.8831 22.2717 20.5698 22.8853C21.2564 23.4989 22.3083 23.4405 22.9218 22.7538C23.3309 22.2937 23.4332 21.6728 23.2578 21.1249V21.1176ZM20 12.2425V10H23.3309V12.2425C22.1329 12.038 21.1687 12.0453 20 12.2425ZM27.3777 13.9664L28.5537 12.7904L29.7297 13.9664L28.6267 15.0694C28.2396 14.6676 27.8232 14.2951 27.3777 13.9591V13.9664ZM11.6654 17.5018H18.3346V19.1673H11.6654V17.5018ZM10 20.8327H16.6691V22.4982H10V20.8327ZM12.4982 24.1636H18.3346V25.8291H12.4982V24.1636ZM30 21.6655C30 26.2674 26.2673 30 21.6654 30C19.3426 30 17.2462 29.0358 15.7414 27.5018H18.4733C19.4229 28.0278 20.504 28.3346 21.6654 28.3346C25.3397 28.3346 28.3346 25.3397 28.3346 21.6655C28.3346 17.9913 25.3397 14.9964 21.6654 14.9964C20.504 14.9964 19.4229 15.3032 18.4733 15.8291H15.7414C17.2535 14.2878 19.3426 13.3309 21.6654 13.3309C26.2673 13.3309 30 17.0636 30 21.6655Z" fill="#716962"/>
</g>
<defs>
<filter id="filter0_d_23_146" x="0" y="0" width="40" height="40" filterUnits="userSpaceOnUse" color-interpolation-filters="sRGB">
<feFlood flood-opacity="0" result="BackgroundImageFix"/>
<feColorMatrix in="SourceAlpha" type="matrix" values="0 0 0 0 0 0 0 0 0 0 0 0 0 0 0 0 0 0 127 0" result="hardAlpha"/>
<feOffset/>
<feGaussianBlur stdDeviation="5"/>
<feColorMatrix type="matrix" values="0 0 0 0 0.427451 0 0 0 0 0.286275 0 0 0 0 0.192157 0 0 0 0.1 0"/>
<feBlend mode="normal" in2="BackgroundImageFix" result="effect1_dropShadow_23_146"/>
<feBlend mode="normal" in="SourceGraphic" in2="effect1_dropShadow_23_146" result="shape"/>
</filter>
</defs>
</svg>
